ffmpeg started on 2025-03-17 at 15:56:52
Report written to "D:\Convert\FFMetrics\reports\vmaf_report-6.txt"
Log level: 32
Command line:
ffmpeg -hide_banner -nostdin -r 25/1 -i "E:\\Convert\\out\\FBS NF 124 (1080P AVC)_HEVC.mkv" -r 25/1 -i "E:\\Convert\\files\\FBS NF 124 (1080P AVC).mp4" -lavfi "[0:v]settb=AVTB,setpts=PTS-STARTPTS,format=pix_fmts=yuv420p10,fps=25/1,scale=1920:804:flags=bicubic[main];[1:v]settb=AVTB,setpts=PTS-STARTPTS,format=pix_fmts=yuv420p,fps=25/1,scale=1920:804:flags=bicubic[ref];[main][ref]libvmaf=eof_action=endall:log_path='D\\:/Convert/FFMetrics/logs/vmaf_logfile-6.txt':n_threads=32:pool=Mean:model=version=vmaf_v0.6.1" -f null -
Input #0, matroska,webm, from 'E:\Convert\out\FBS NF 124 (1080P AVC)_HEVC.mkv':
  Metadata:
    COMPATIBLE_BRANDS: mp42mp41
    MAJOR_BRAND     : mp42
    MINOR_VERSION   : 0
    ENCODER         : Lavf61.9.106
  Duration: 00:22:02.88, start: -0.021000, bitrate: 3380 kb/s
  Stream #0:0(eng): Video: hevc (Main 10), yuv420p10le(tv, bt709, progressive), 1920x804 [SAR 1:1 DAR 160:67], 25 fps, 25 tbr, 1k tbn (default)
      Metadata:
        ENCODER         : Lavc61.31.101 libx265
        HANDLER_NAME    : Mainconcept Video Media Handler
        VENDOR_ID       : [0][0][0][0]
        BPS             : 3186460
        DURATION        : 00:22:02.840000000
        NUMBER_OF_FRAMES: 33071
        NUMBER_OF_BYTES : 526897129
        _STATISTICS_WRITING_APP: mkvpropedit v66.0.0 ('Josie') 64-bit
        _STATISTICS_WRITING_DATE_UTC: 2025-02-15 15:27:35
        _STATISTICS_TAGS: BPS DURATION NUMBER_OF_FRAMES NUMBER_OF_BYTES
  Stream #0:1(eng): Audio: aac (LC), 48000 Hz, stereo, fltp (default)
      Metadata:
        ENCODER         : Lavc61.31.101 aac
        HANDLER_NAME    : #Mainconcept MP4 Sound Media Handler
        VENDOR_ID       : [0][0][0][0]
        BPS             : 189986
        DURATION        : 00:22:02.858000000
        NUMBER_OF_FRAMES: 62010
        NUMBER_OF_BYTES : 31415714
        _STATISTICS_WRITING_APP: mkvpropedit v66.0.0 ('Josie') 64-bit
        _STATISTICS_WRITING_DATE_UTC: 2025-02-15 15:27:35
        _STATISTICS_TAGS: BPS DURATION NUMBER_OF_FRAMES NUMBER_OF_BYTES
Input #1, mov,mp4,m4a,3gp,3g2,mj2, from 'E:\Convert\files\FBS NF 124 (1080P AVC).mp4':
  Metadata:
    major_brand     : mp42
    minor_version   : 0
    compatible_brands: mp42mp41
    creation_time   : 2024-12-09T14:39:16.000000Z
  Duration: 00:22:02.84, start: 0.000000, bitrate: 5643 kb/s
  Stream #1:0[0x1](eng): Video: h264 (Main) (avc1 / 0x31637661), yuv420p(tv, bt709, progressive), 1920x804, 5513 kb/s, 25 fps, 25 tbr, 25k tbn (default)
      Metadata:
        creation_time   : 2024-12-09T14:39:16.000000Z
        handler_name    : Mainconcept Video Media Handler
        vendor_id       : [0][0][0][0]
        encoder         : AVC Coding
  Stream #1:1[0x2](eng): Audio: aac (LC) (mp4a / 0x6134706D), 48000 Hz, stereo, fltp, 125 kb/s (default)
      Metadata:
        creation_time   : 2024-12-09T14:39:16.000000Z
        handler_name    : #Mainconcept MP4 Sound Media Handler
        vendor_id       : [0][0][0][0]
Stream mapping:
  Stream #0:0 (hevc) -> settb:default
  Stream #1:0 (h264) -> settb:default
  libvmaf:default -> Stream #0:0 (wrapped_avframe)
  Stream #0:1 -> #0:1 (aac (native) -> pcm_s16le (native))
Output #0, null, to 'pipe:':
  Metadata:
    COMPATIBLE_BRANDS: mp42mp41
    MAJOR_BRAND     : mp42
    MINOR_VERSION   : 0
    encoder         : Lavf61.7.100
  Stream #0:0: Video: wrapped_avframe, yuv420p10le(tv, bt709, progressive), 1920x804 [SAR 1:1 DAR 160:67], q=2-31, 200 kb/s, 25 fps, 25 tbn
      Metadata:
        encoder         : Lavc61.19.100 wrapped_avframe
  Stream #0:1(eng): Audio: pcm_s16le, 48000 Hz, stereo, s16, 1536 kb/s (default)
      Metadata:
        _STATISTICS_TAGS: BPS DURATION NUMBER_OF_FRAMES NUMBER_OF_BYTES
        HANDLER_NAME    : #Mainconcept MP4 Sound Media Handler
        VENDOR_ID       : [0][0][0][0]
        BPS             : 189986
        DURATION        : 00:22:02.858000000
        NUMBER_OF_FRAMES: 62010
        NUMBER_OF_BYTES : 31415714
        _STATISTICS_WRITING_APP: mkvpropedit v66.0.0 ('Josie') 64-bit
        _STATISTICS_WRITING_DATE_UTC: 2025-02-15 15:27:35
        encoder         : Lavc61.19.100 pcm_s16le
frame=   51 fps=0.0 q=-0.0 size=N/A time=00:00:02.04 bitrate=N/A speed=3.94x    frame=  112 fps=109 q=-0.0 size=N/A time=00:00:04.48 bitrate=N/A speed=4.35x    frame=  172 fps=111 q=-0.0 size=N/A time=00:00:06.88 bitrate=N/A speed=4.43x    frame=  228 fps=111 q=-0.0 size=N/A time=00:00:09.12 bitrate=N/A speed=4.42x    frame=  286 fps=110 q=-0.0 size=N/A time=00:00:11.44 bitrate=N/A speed=4.42x    frame=  344 fps=111 q=-0.0 size=N/A time=00:00:13.76 bitrate=N/A speed=4.42x    frame=  404 fps=111 q=-0.0 size=N/A time=00:00:16.16 bitrate=N/A speed=4.44x    frame=  466 fps=112 q=-0.0 size=N/A time=00:00:18.64 bitrate=N/A speed=4.48x    frame=  527 fps=113 q=-0.0 size=N/A time=00:00:21.08 bitrate=N/A speed=4.51x    frame=  588 fps=113 q=-0.0 size=N/A time=00:00:23.52 bitrate=N/A speed=4.53x    frame=  649 fps=114 q=-0.0 size=N/A time=00:00:25.96 bitrate=N/A speed=4.54x    frame=  710 fps=114 q=-0.0 size=N/A time=00:00:28.40 bitrate=N/A speed=4.56x    frame=  773 fps=115 q=-0.0 size=N/A time=00:00:30.92 bitrate=N/A speed=4.58x    frame=  837 fps=115 q=-0.0 size=N/A time=00:00:33.48 bitrate=N/A speed=4.62x    frame=  901 fps=116 q=-0.0 size=N/A time=00:00:36.04 bitrate=N/A speed=4.63x    frame=  964 fps=116 q=-0.0 size=N/A time=00:00:38.56 bitrate=N/A speed=4.65x    frame= 1027 fps=117 q=-0.0 size=N/A time=00:00:41.08 bitrate=N/A speed=4.67x    frame= 1092 fps=117 q=-0.0 size=N/A time=00:00:43.68 bitrate=N/A speed=4.69x    frame= 1153 fps=117 q=-0.0 size=N/A time=00:00:46.12 bitrate=N/A speed=4.69x    frame= 1217 fps=118 q=-0.0 size=N/A time=00:00:48.68 bitrate=N/A speed=4.71x    frame= 1280 fps=118 q=-0.0 size=N/A time=00:00:51.20 bitrate=N/A speed=4.71x    frame= 1343 fps=118 q=-0.0 size=N/A time=00:00:53.72 bitrate=N/A speed=4.72x    frame= 1399 fps=118 q=-0.0 size=N/A time=00:00:55.96 bitrate=N/A speed=4.71x    frame= 1460 fps=118 q=-0.0 size=N/A time=00:00:58.40 bitrate=N/A speed= 4.7x    frame= 1517 fps=117 q=-0.0 size=N/A time=00:01:00.68 bitrate=N/A speed= 4.7x    frame= 1578 fps=117 q=-0.0 size=N/A time=00:01:03.12 bitrate=N/A speed= 4.7x    frame= 1636 fps=117 q=-0.0 size=N/A time=00:01:05.44 bitrate=N/A speed=4.69x    frame= 1695 fps=117 q=-0.0 size=N/A time=00:01:07.80 bitrate=N/A speed=4.68x    frame= 1750 fps=117 q=-0.0 size=N/A time=00:01:10.00 bitrate=N/A speed=4.67x    frame= 1807 fps=117 q=-0.0 size=N/A time=00:01:12.28 bitrate=N/A speed=4.66x    frame= 1869 fps=117 q=-0.0 size=N/A time=00:01:14.76 bitrate=N/A speed=4.66x    frame= 1927 fps=117 q=-0.0 size=N/A time=00:01:17.08 bitrate=N/A speed=4.66x    frame= 1985 fps=116 q=-0.0 size=N/A time=00:01:19.40 bitrate=N/A speed=4.65x    frame= 2046 fps=116 q=-0.0 size=N/A time=00:01:21.84 bitrate=N/A speed=4.66x    frame= 2107 fps=117 q=-0.0 size=N/A time=00:01:24.28 bitrate=N/A speed=4.66x    frame= 2168 fps=117 q=-0.0 size=N/A time=00:01:26.72 bitrate=N/A speed=4.66x    frame= 2227 fps=117 q=-0.0 size=N/A time=00:01:29.08 bitrate=N/A speed=4.66x    frame= 2288 fps=117 q=-0.0 size=N/A time=00:01:31.52 bitrate=N/A speed=4.66x    frame= 2350 fps=117 q=-0.0 size=N/A time=00:01:34.00 bitrate=N/A speed=4.67x    frame= 2410 fps=117 q=-0.0 size=N/A time=00:01:36.40 bitrate=N/A speed=4.67x    frame= 2469 fps=117 q=-0.0 size=N/A time=00:01:38.76 bitrate=N/A speed=4.67x    frame= 2531 fps=117 q=-0.0 size=N/A time=00:01:41.24 bitrate=N/A speed=4.67x    frame= 2591 fps=117 q=-0.0 size=N/A time=00:01:43.64 bitrate=N/A speed=4.67x    frame= 2654 fps=117 q=-0.0 size=N/A time=00:01:46.16 bitrate=N/A speed=4.67x    frame= 2714 fps=117 q=-0.0 size=N/A time=00:01:48.56 bitrate=N/A speed=4.67x    frame= 2774 fps=117 q=-0.0 size=N/A time=00:01:50.96 bitrate=N/A speed=4.67x    frame= 2836 fps=117 q=-0.0 size=N/A time=00:01:53.44 bitrate=N/A speed=4.67x    frame= 2894 fps=117 q=-0.0 size=N/A time=00:01:55.76 bitrate=N/A speed=4.67x    frame= 2956 fps=117 q=-0.0 size=N/A time=00:01:58.24 bitrate=N/A speed=4.67x    frame= 3016 fps=117 q=-0.0 size=N/A time=00:02:00.64 bitrate=N/A speed=4.67x    frame= 3080 fps=117 q=-0.0 size=N/A time=00:02:03.20 bitrate=N/A speed=4.68x    frame= 3139 fps=117 q=-0.0 size=N/A time=00:02:05.56 bitrate=N/A speed=4.68x    frame= 3200 fps=117 q=-0.0 size=N/A time=00:02:08.00 bitrate=N/A speed=4.68x    frame= 3261 fps=117 q=-0.0 size=N/A time=00:02:10.44 bitrate=N/A speed=4.68x    frame= 3322 fps=117 q=-0.0 size=N/A time=00:02:12.88 bitrate=N/A speed=4.68x    frame= 3383 fps=117 q=-0.0 size=N/A time=00:02:15.32 bitrate=N/A speed=4.68x    frame= 3438 fps=117 q=-0.0 size=N/A time=00:02:17.52 bitrate=N/A speed=4.67x    frame= 3500 fps=117 q=-0.0 size=N/A time=00:02:20.00 bitrate=N/A speed=4.67x    frame= 3561 fps=117 q=-0.0 size=N/A time=00:02:22.44 bitrate=N/A speed=4.68x    frame= 3624 fps=117 q=-0.0 size=N/A time=00:02:24.96 bitrate=N/A speed=4.68x    frame= 3687 fps=117 q=-0.0 size=N/A time=00:02:27.48 bitrate=N/A speed=4.68x    frame= 3745 fps=117 q=-0.0 size=N/A time=00:02:29.80 bitrate=N/A speed=4.68x    frame= 3803 fps=117 q=-0.0 size=N/A time=00:02:32.12 bitrate=N/A speed=4.68x    frame= 3863 fps=117 q=-0.0 size=N/A time=00:02:34.52 bitrate=N/A speed=4.68x    frame= 3921 fps=117 q=-0.0 size=N/A time=00:02:36.84 bitrate=N/A speed=4.67x    frame= 3979 fps=117 q=-0.0 size=N/A time=00:02:39.16 bitrate=N/A speed=4.67x    frame= 4038 fps=117 q=-0.0 size=N/A time=00:02:41.52 bitrate=N/A speed=4.67x    frame= 4096 fps=117 q=-0.0 size=N/A time=00:02:43.84 bitrate=N/A speed=4.67x    frame= 4154 fps=117 q=-0.0 size=N/A time=00:02:46.16 bitrate=N/A speed=4.67x    frame= 4215 fps=117 q=-0.0 size=N/A time=00:02:48.60 bitrate=N/A speed=4.67x    frame= 4275 fps=117 q=-0.0 size=N/A time=00:02:51.00 bitrate=N/A speed=4.67x    frame= 4336 fps=117 q=-0.0 size=N/A time=00:02:53.44 bitrate=N/A speed=4.67x    frame= 4395 fps=117 q=-0.0 size=N/A time=00:02:55.80 bitrate=N/A speed=4.67x    frame= 4455 fps=117 q=-0.0 size=N/A time=00:02:58.20 bitrate=N/A speed=4.67x    frame= 4514 fps=117 q=-0.0 size=N/A time=00:03:00.56 bitrate=N/A speed=4.66x    frame= 4573 fps=117 q=-0.0 size=N/A time=00:03:02.92 bitrate=N/A speed=4.66x    frame= 4637 fps=117 q=-0.0 size=N/A time=00:03:05.48 bitrate=N/A speed=4.67x    frame= 4695 fps=117 q=-0.0 size=N/A time=00:03:07.80 bitrate=N/A speed=4.67x    frame= 4756 fps=117 q=-0.0 size=N/A time=00:03:10.24 bitrate=N/A speed=4.67x    frame= 4812 fps=117 q=-0.0 size=N/A time=00:03:12.48 bitrate=N/A speed=4.66x    frame= 4873 fps=117 q=-0.0 size=N/A time=00:03:14.92 bitrate=N/A speed=4.66x    frame= 4935 fps=117 q=-0.0 size=N/A time=00:03:17.40 bitrate=N/A speed=4.66x    frame= 4996 fps=117 q=-0.0 size=N/A time=00:03:19.84 bitrate=N/A speed=4.67x    frame= 5057 fps=117 q=-0.0 size=N/A time=00:03:22.28 bitrate=N/A speed=4.67x    frame= 5116 fps=117 q=-0.0 size=N/A time=00:03:24.64 bitrate=N/A speed=4.67x    frame= 5176 fps=117 q=-0.0 size=N/A time=00:03:27.04 bitrate=N/A speed=4.66x    frame= 5238 fps=117 q=-0.0 size=N/A time=00:03:29.52 bitrate=N/A speed=4.66x    frame= 5298 fps=117 q=-0.0 size=N/A time=00:03:31.92 bitrate=N/A speed=4.67x    frame= 5358 fps=117 q=-0.0 size=N/A time=00:03:34.32 bitrate=N/A speed=4.67x    frame= 5417 fps=117 q=-0.0 size=N/A time=00:03:36.68 bitrate=N/A speed=4.66x    frame= 5475 fps=117 q=-0.0 size=N/A time=00:03:39.00 bitrate=N/A speed=4.66x    frame= 5538 fps=117 q=-0.0 size=N/A time=00:03:41.52 bitrate=N/A speed=4.66x    frame= 5598 fps=117 q=-0.0 size=N/A time=00:03:43.92 bitrate=N/A speed=4.66x    frame= 5655 fps=117 q=-0.0 size=N/A time=00:03:46.20 bitrate=N/A speed=4.66x    frame= 5714 fps=117 q=-0.0 size=N/A time=00:03:48.56 bitrate=N/A speed=4.66x    frame= 5772 fps=116 q=-0.0 size=N/A time=00:03:50.88 bitrate=N/A speed=4.66x    frame= 5829 fps=116 q=-0.0 size=N/A time=00:03:53.16 bitrate=N/A speed=4.66x    frame= 5890 fps=116 q=-0.0 size=N/A time=00:03:55.60 bitrate=N/A speed=4.66x    frame= 5952 fps=116 q=-0.0 size=N/A time=00:03:58.08 bitrate=N/A speed=4.66x    frame= 6011 fps=116 q=-0.0 size=N/A time=00:04:00.44 bitrate=N/A speed=4.66x    frame= 6072 fps=116 q=-0.0 size=N/A time=00:04:02.88 bitrate=N/A speed=4.66x    frame= 6135 fps=117 q=-0.0 size=N/A time=00:04:05.40 bitrate=N/A speed=4.66x    frame= 6193 fps=117 q=-0.0 size=N/A time=00:04:07.72 bitrate=N/A speed=4.66x    frame= 6251 fps=116 q=-0.0 size=N/A time=00:04:10.04 bitrate=N/A speed=4.66x    frame= 6313 fps=116 q=-0.0 size=N/A time=00:04:12.52 bitrate=N/A speed=4.66x    frame= 6371 fps=116 q=-0.0 size=N/A time=00:04:14.84 bitrate=N/A speed=4.66x    frame= 6433 fps=116 q=-0.0 size=N/A time=00:04:17.32 bitrate=N/A speed=4.66x    frame= 6492 fps=116 q=-0.0 size=N/A time=00:04:19.68 bitrate=N/A speed=4.66x    frame= 6552 fps=116 q=-0.0 size=N/A time=00:04:22.08 bitrate=N/A speed=4.66x    frame= 6613 fps=116 q=-0.0 size=N/A time=00:04:24.52 bitrate=N/A speed=4.66x    frame= 6671 fps=116 q=-0.0 size=N/A time=00:04:26.84 bitrate=N/A speed=4.66x    frame= 6731 fps=116 q=-0.0 size=N/A time=00:04:29.24 bitrate=N/A speed=4.66x    frame= 6790 fps=116 q=-0.0 size=N/A time=00:04:31.60 bitrate=N/A speed=4.66x    frame= 6849 fps=116 q=-0.0 size=N/A time=00:04:33.96 bitrate=N/A speed=4.66x    frame= 6909 fps=116 q=-0.0 size=N/A time=00:04:36.36 bitrate=N/A speed=4.66x    frame= 6969 fps=116 q=-0.0 size=N/A time=00:04:38.76 bitrate=N/A speed=4.66x    frame= 7029 fps=116 q=-0.0 size=N/A time=00:04:41.16 bitrate=N/A speed=4.66x    frame= 7089 fps=116 q=-0.0 size=N/A time=00:04:43.56 bitrate=N/A speed=4.66x    frame= 7147 fps=116 q=-0.0 size=N/A time=00:04:45.88 bitrate=N/A speed=4.65x    frame= 7208 fps=116 q=-0.0 size=N/A time=00:04:48.32 bitrate=N/A speed=4.65x    frame= 7266 fps=116 q=-0.0 size=N/A time=00:04:50.64 bitrate=N/A speed=4.65x    frame= 7326 fps=116 q=-0.0 size=N/A time=00:04:53.04 bitrate=N/A speed=4.65x    frame= 7388 fps=116 q=-0.0 size=N/A time=00:04:55.52 bitrate=N/A speed=4.65x    frame= 7449 fps=116 q=-0.0 size=N/A time=00:04:57.96 bitrate=N/A speed=4.66x    frame= 7512 fps=116 q=-0.0 size=N/A time=00:05:00.48 bitrate=N/A speed=4.66x    frame= 7574 fps=116 q=-0.0 size=N/A time=00:05:02.96 bitrate=N/A speed=4.66x    frame= 7635 fps=116 q=-0.0 size=N/A time=00:05:05.40 bitrate=N/A speed=4.66x    frame= 7694 fps=116 q=-0.0 size=N/A time=00:05:07.76 bitrate=N/A speed=4.66x    frame= 7755 fps=116 q=-0.0 size=N/A time=00:05:10.20 bitrate=N/A speed=4.66x    frame= 7815 fps=116 q=-0.0 size=N/A time=00:05:12.60 bitrate=N/A speed=4.66x    frame= 7875 fps=116 q=-0.0 size=N/A time=00:05:15.00 bitrate=N/A speed=4.66x    frame= 7936 fps=116 q=-0.0 size=N/A time=00:05:17.44 bitrate=N/A speed=4.66x    frame= 7995 fps=116 q=-0.0 size=N/A time=00:05:19.80 bitrate=N/A speed=4.66x    frame= 8055 fps=116 q=-0.0 size=N/A time=00:05:22.20 bitrate=N/A speed=4.66x    frame= 8113 fps=116 q=-0.0 size=N/A time=00:05:24.52 bitrate=N/A speed=4.66x    frame= 8172 fps=116 q=-0.0 size=N/A time=00:05:26.88 bitrate=N/A speed=4.66x    frame= 8231 fps=116 q=-0.0 size=N/A time=00:05:29.24 bitrate=N/A speed=4.66x    frame= 8290 fps=116 q=-0.0 size=N/A time=00:05:31.60 bitrate=N/A speed=4.66x    frame= 8352 fps=116 q=-0.0 size=N/A time=00:05:34.08 bitrate=N/A speed=4.66x    frame= 8413 fps=116 q=-0.0 size=N/A time=00:05:36.52 bitrate=N/A speed=4.66x    frame= 8473 fps=116 q=-0.0 size=N/A time=00:05:38.92 bitrate=N/A speed=4.66x    frame= 8534 fps=116 q=-0.0 size=N/A time=00:05:41.36 bitrate=N/A speed=4.66x    frame= 8593 fps=116 q=-0.0 size=N/A time=00:05:43.72 bitrate=N/A speed=4.66x    frame= 8654 fps=116 q=-0.0 size=N/A time=00:05:46.16 bitrate=N/A speed=4.66x    frame= 8711 fps=116 q=-0.0 size=N/A time=00:05:48.44 bitrate=N/A speed=4.66x    frame= 8772 fps=116 q=-0.0 size=N/A time=00:05:50.88 bitrate=N/A speed=4.66x    frame= 8830 fps=116 q=-0.0 size=N/A time=00:05:53.20 bitrate=N/A speed=4.66x    frame= 8890 fps=116 q=-0.0 size=N/A time=00:05:55.60 bitrate=N/A speed=4.66x    frame= 8952 fps=116 q=-0.0 size=N/A time=00:05:58.08 bitrate=N/A speed=4.66x    frame= 9012 fps=116 q=-0.0 size=N/A time=00:06:00.48 bitrate=N/A speed=4.66x    frame= 9073 fps=116 q=-0.0 size=N/A time=00:06:02.92 bitrate=N/A speed=4.66x    frame= 9135 fps=116 q=-0.0 size=N/A time=00:06:05.40 bitrate=N/A speed=4.66x    frame= 9192 fps=116 q=-0.0 size=N/A time=00:06:07.68 bitrate=N/A speed=4.66x    frame= 9253 fps=116 q=-0.0 size=N/A time=00:06:10.12 bitrate=N/A speed=4.66x    frame= 9314 fps=116 q=-0.0 size=N/A time=00:06:12.56 bitrate=N/A speed=4.66x    frame= 9374 fps=116 q=-0.0 size=N/A time=00:06:14.96 bitrate=N/A speed=4.66x    frame= 9434 fps=116 q=-0.0 size=N/A time=00:06:17.36 bitrate=N/A speed=4.66x    frame= 9493 fps=116 q=-0.0 size=N/A time=00:06:19.72 bitrate=N/A speed=4.66x    frame= 9556 fps=116 q=-0.0 size=N/A time=00:06:22.24 bitrate=N/A speed=4.66x    frame= 9617 fps=116 q=-0.0 size=N/A time=00:06:24.68 bitrate=N/A speed=4.66x    frame= 9674 fps=116 q=-0.0 size=N/A time=00:06:26.96 bitrate=N/A speed=4.66x    frame= 9736 fps=116 q=-0.0 size=N/A time=00:06:29.44 bitrate=N/A speed=4.66x    frame= 9798 fps=116 q=-0.0 size=N/A time=00:06:31.92 bitrate=N/A speed=4.66x    frame= 9860 fps=116 q=-0.0 size=N/A time=00:06:34.40 bitrate=N/A speed=4.66x    frame= 9920 fps=117 q=-0.0 size=N/A time=00:06:36.80 bitrate=N/A speed=4.66x    frame= 9978 fps=116 q=-0.0 size=N/A time=00:06:39.12 bitrate=N/A speed=4.66x    frame=10036 fps=116 q=-0.0 size=N/A time=00:06:41.44 bitrate=N/A speed=4.66x    frame=10099 fps=116 q=-0.0 size=N/A time=00:06:43.96 bitrate=N/A speed=4.66x    frame=10158 fps=116 q=-0.0 size=N/A time=00:06:46.32 bitrate=N/A speed=4.66x    frame=10221 fps=117 q=-0.0 size=N/A time=00:06:48.84 bitrate=N/A speed=4.66x    frame=10281 fps=117 q=-0.0 size=N/A time=00:06:51.24 bitrate=N/A speed=4.66x    frame=10339 fps=116 q=-0.0 size=N/A time=00:06:53.56 bitrate=N/A speed=4.66x    frame=10401 fps=117 q=-0.0 size=N/A time=00:06:56.04 bitrate=N/A speed=4.66x    frame=10461 fps=117 q=-0.0 size=N/A time=00:06:58.44 bitrate=N/A speed=4.66x    frame=10522 fps=117 q=-0.0 size=N/A time=00:07:00.88 bitrate=N/A speed=4.66x    frame=10582 fps=117 q=-0.0 size=N/A time=00:07:03.28 bitrate=N/A speed=4.66x    frame=10638 fps=116 q=-0.0 size=N/A time=00:07:05.52 bitrate=N/A speed=4.66x    frame=10699 fps=116 q=-0.0 size=N/A time=00:07:07.96 bitrate=N/A speed=4.66x    frame=10757 fps=116 q=-0.0 size=N/A time=00:07:10.28 bitrate=N/A speed=4.66x    frame=10817 fps=116 q=-0.0 size=N/A time=00:07:12.68 bitrate=N/A speed=4.66x    frame=10877 fps=116 q=-0.0 size=N/A time=00:07:15.08 bitrate=N/A speed=4.66x    frame=10935 fps=116 q=-0.0 size=N/A time=00:07:17.40 bitrate=N/A speed=4.66x    frame=10992 fps=116 q=-0.0 size=N/A time=00:07:19.68 bitrate=N/A speed=4.66x    frame=11050 fps=116 q=-0.0 size=N/A time=00:07:22.00 bitrate=N/A speed=4.66x    frame=11112 fps=116 q=-0.0 size=N/A time=00:07:24.48 bitrate=N/A speed=4.66x    frame=11170 fps=116 q=-0.0 size=N/A time=00:07:26.80 bitrate=N/A speed=4.66x    frame=11231 fps=116 q=-0.0 size=N/A time=00:07:29.24 bitrate=N/A speed=4.66x    frame=11290 fps=116 q=-0.0 size=N/A time=00:07:31.60 bitrate=N/A speed=4.66x    frame=11349 fps=116 q=-0.0 size=N/A time=00:07:33.96 bitrate=N/A speed=4.65x    frame=11410 fps=116 q=-0.0 size=N/A time=00:07:36.40 bitrate=N/A speed=4.66x    frame=11470 fps=116 q=-0.0 size=N/A time=00:07:38.80 bitrate=N/A speed=4.66x    frame=11525 fps=116 q=-0.0 size=N/A time=00:07:41.00 bitrate=N/A speed=4.65x    frame=11587 fps=116 q=-0.0 size=N/A time=00:07:43.48 bitrate=N/A speed=4.65x    frame=11650 fps=116 q=-0.0 size=N/A time=00:07:46.00 bitrate=N/A speed=4.65x    frame=11711 fps=116 q=-0.0 size=N/A time=00:07:48.44 bitrate=N/A speed=4.66x    frame=11771 fps=116 q=-0.0 size=N/A time=00:07:50.84 bitrate=N/A speed=4.66x    frame=11831 fps=116 q=-0.0 size=N/A time=00:07:53.24 bitrate=N/A speed=4.66x    frame=11892 fps=116 q=-0.0 size=N/A time=00:07:55.68 bitrate=N/A speed=4.66x    frame=11951 fps=116 q=-0.0 size=N/A time=00:07:58.04 bitrate=N/A speed=4.66x    frame=12008 fps=116 q=-0.0 size=N/A time=00:08:00.32 bitrate=N/A speed=4.65x    frame=12070 fps=116 q=-0.0 size=N/A time=00:08:02.80 bitrate=N/A speed=4.65x    frame=12129 fps=116 q=-0.0 size=N/A time=00:08:05.16 bitrate=N/A speed=4.65x    frame=12188 fps=116 q=-0.0 size=N/A time=00:08:07.52 bitrate=N/A speed=4.65x    frame=12250 fps=116 q=-0.0 size=N/A time=00:08:10.00 bitrate=N/A speed=4.65x    frame=12307 fps=116 q=-0.0 size=N/A time=00:08:12.28 bitrate=N/A speed=4.65x    frame=12366 fps=116 q=-0.0 size=N/A time=00:08:14.64 bitrate=N/A speed=4.65x    frame=12425 fps=116 q=-0.0 size=N/A time=00:08:17.00 bitrate=N/A speed=4.65x    frame=12484 fps=116 q=-0.0 size=N/A time=00:08:19.36 bitrate=N/A speed=4.65x    frame=12543 fps=116 q=-0.0 size=N/A time=00:08:21.72 bitrate=N/A speed=4.65x    frame=12602 fps=116 q=-0.0 size=N/A time=00:08:24.08 bitrate=N/A speed=4.65x    frame=12662 fps=116 q=-0.0 size=N/A time=00:08:26.48 bitrate=N/A speed=4.65x    frame=12722 fps=116 q=-0.0 size=N/A time=00:08:28.88 bitrate=N/A speed=4.65x    frame=12782 fps=116 q=-0.0 size=N/A time=00:08:31.28 bitrate=N/A speed=4.65x    frame=12840 fps=116 q=-0.0 size=N/A time=00:08:33.60 bitrate=N/A speed=4.65x    frame=12900 fps=116 q=-0.0 size=N/A time=00:08:36.00 bitrate=N/A speed=4.65x    frame=12959 fps=116 q=-0.0 size=N/A time=00:08:38.36 bitrate=N/A speed=4.65x    frame=13018 fps=116 q=-0.0 size=N/A time=00:08:40.72 bitrate=N/A speed=4.65x    frame=13078 fps=116 q=-0.0 size=N/A time=00:08:43.12 bitrate=N/A speed=4.65x    frame=13140 fps=116 q=-0.0 size=N/A time=00:08:45.60 bitrate=N/A speed=4.65x    frame=13201 fps=116 q=-0.0 size=N/A time=00:08:48.04 bitrate=N/A speed=4.65x    frame=13261 fps=116 q=-0.0 size=N/A time=00:08:50.44 bitrate=N/A speed=4.65x    frame=13323 fps=116 q=-0.0 size=N/A time=00:08:52.92 bitrate=N/A speed=4.65x    frame=13382 fps=116 q=-0.0 size=N/A time=00:08:55.28 bitrate=N/A speed=4.65x    frame=13444 fps=116 q=-0.0 size=N/A time=00:08:57.76 bitrate=N/A speed=4.65x    frame=13504 fps=116 q=-0.0 size=N/A time=00:09:00.16 bitrate=N/A speed=4.65x    frame=13565 fps=116 q=-0.0 size=N/A time=00:09:02.60 bitrate=N/A speed=4.65x    frame=13624 fps=116 q=-0.0 size=N/A time=00:09:04.96 bitrate=N/A speed=4.65x    frame=13683 fps=116 q=-0.0 size=N/A time=00:09:07.32 bitrate=N/A speed=4.65x    frame=13742 fps=116 q=-0.0 size=N/A time=00:09:09.68 bitrate=N/A speed=4.65x    frame=13801 fps=116 q=-0.0 size=N/A time=00:09:12.04 bitrate=N/A speed=4.65x    frame=13860 fps=116 q=-0.0 size=N/A time=00:09:14.40 bitrate=N/A speed=4.65x    frame=13920 fps=116 q=-0.0 size=N/A time=00:09:16.80 bitrate=N/A speed=4.65x    frame=13983 fps=116 q=-0.0 size=N/A time=00:09:19.32 bitrate=N/A speed=4.65x    frame=14042 fps=116 q=-0.0 size=N/A time=00:09:21.68 bitrate=N/A speed=4.65x    frame=14101 fps=116 q=-0.0 size=N/A time=00:09:24.04 bitrate=N/A speed=4.65x    frame=14162 fps=116 q=-0.0 size=N/A time=00:09:26.48 bitrate=N/A speed=4.65x    frame=14221 fps=116 q=-0.0 size=N/A time=00:09:28.84 bitrate=N/A speed=4.65x    frame=14281 fps=116 q=-0.0 size=N/A time=00:09:31.24 bitrate=N/A speed=4.65x    frame=14340 fps=116 q=-0.0 size=N/A time=00:09:33.60 bitrate=N/A speed=4.65x    frame=14398 fps=116 q=-0.0 size=N/A time=00:09:35.92 bitrate=N/A speed=4.65x    frame=14456 fps=116 q=-0.0 size=N/A time=00:09:38.24 bitrate=N/A speed=4.65x    frame=14518 fps=116 q=-0.0 size=N/A time=00:09:40.72 bitrate=N/A speed=4.65x    frame=14583 fps=116 q=-0.0 size=N/A time=00:09:43.32 bitrate=N/A speed=4.65x    frame=14643 fps=116 q=-0.0 size=N/A time=00:09:45.72 bitrate=N/A speed=4.65x    frame=14704 fps=116 q=-0.0 size=N/A time=00:09:48.16 bitrate=N/A speed=4.65x    frame=14765 fps=116 q=-0.0 size=N/A time=00:09:50.60 bitrate=N/A speed=4.65x    frame=14826 fps=116 q=-0.0 size=N/A time=00:09:53.04 bitrate=N/A speed=4.65x    frame=14887 fps=116 q=-0.0 size=N/A time=00:09:55.48 bitrate=N/A speed=4.65x    frame=14946 fps=116 q=-0.0 size=N/A time=00:09:57.84 bitrate=N/A speed=4.65x    frame=15007 fps=116 q=-0.0 size=N/A time=00:10:00.28 bitrate=N/A speed=4.65x    frame=15070 fps=116 q=-0.0 size=N/A time=00:10:02.80 bitrate=N/A speed=4.65x    frame=15133 fps=116 q=-0.0 size=N/A time=00:10:05.32 bitrate=N/A speed=4.66x    frame=15193 fps=116 q=-0.0 size=N/A time=00:10:07.72 bitrate=N/A speed=4.66x    frame=15257 fps=116 q=-0.0 size=N/A time=00:10:10.28 bitrate=N/A speed=4.66x    frame=15319 fps=116 q=-0.0 size=N/A time=00:10:12.76 bitrate=N/A speed=4.66x    frame=15381 fps=116 q=-0.0 size=N/A time=00:10:15.24 bitrate=N/A speed=4.66x    frame=15442 fps=116 q=-0.0 size=N/A time=00:10:17.68 bitrate=N/A speed=4.66x    frame=15501 fps=116 q=-0.0 size=N/A time=00:10:20.04 bitrate=N/A speed=4.66x    frame=15561 fps=116 q=-0.0 size=N/A time=00:10:22.44 bitrate=N/A speed=4.66x    frame=15623 fps=116 q=-0.0 size=N/A time=00:10:24.92 bitrate=N/A speed=4.66x    frame=15682 fps=116 q=-0.0 size=N/A time=00:10:27.28 bitrate=N/A speed=4.66x    frame=15744 fps=116 q=-0.0 size=N/A time=00:10:29.76 bitrate=N/A speed=4.66x    frame=15802 fps=116 q=-0.0 size=N/A time=00:10:32.08 bitrate=N/A speed=4.66x    frame=15864 fps=116 q=-0.0 size=N/A time=00:10:34.56 bitrate=N/A speed=4.66x    frame=15922 fps=116 q=-0.0 size=N/A time=00:10:36.88 bitrate=N/A speed=4.66x    frame=15984 fps=116 q=-0.0 size=N/A time=00:10:39.36 bitrate=N/A speed=4.66x    frame=16044 fps=116 q=-0.0 size=N/A time=00:10:41.76 bitrate=N/A speed=4.66x    frame=16105 fps=116 q=-0.0 size=N/A time=00:10:44.20 bitrate=N/A speed=4.66x    frame=16165 fps=116 q=-0.0 size=N/A time=00:10:46.60 bitrate=N/A speed=4.66x    frame=16226 fps=116 q=-0.0 size=N/A time=00:10:49.04 bitrate=N/A speed=4.66x    frame=16287 fps=116 q=-0.0 size=N/A time=00:10:51.48 bitrate=N/A speed=4.66x    frame=16347 fps=116 q=-0.0 size=N/A time=00:10:53.88 bitrate=N/A speed=4.66x    frame=16408 fps=116 q=-0.0 size=N/A time=00:10:56.32 bitrate=N/A speed=4.66x    frame=16469 fps=116 q=-0.0 size=N/A time=00:10:58.76 bitrate=N/A speed=4.66x    frame=16529 fps=116 q=-0.0 size=N/A time=00:11:01.16 bitrate=N/A speed=4.66x    frame=16591 fps=116 q=-0.0 size=N/A time=00:11:03.64 bitrate=N/A speed=4.66x    frame=16652 fps=116 q=-0.0 size=N/A time=00:11:06.08 bitrate=N/A speed=4.66x    frame=16711 fps=116 q=-0.0 size=N/A time=00:11:08.44 bitrate=N/A speed=4.66x    frame=16771 fps=116 q=-0.0 size=N/A time=00:11:10.84 bitrate=N/A speed=4.66x    frame=16832 fps=116 q=-0.0 size=N/A time=00:11:13.28 bitrate=N/A speed=4.66x    frame=16891 fps=116 q=-0.0 size=N/A time=00:11:15.64 bitrate=N/A speed=4.66x    frame=16951 fps=116 q=-0.0 size=N/A time=00:11:18.04 bitrate=N/A speed=4.66x    frame=17009 fps=116 q=-0.0 size=N/A time=00:11:20.36 bitrate=N/A speed=4.66x    frame=17071 fps=116 q=-0.0 size=N/A time=00:11:22.84 bitrate=N/A speed=4.66x    frame=17130 fps=116 q=-0.0 size=N/A time=00:11:25.20 bitrate=N/A speed=4.66x    frame=17188 fps=116 q=-0.0 size=N/A time=00:11:27.52 bitrate=N/A speed=4.66x    frame=17251 fps=116 q=-0.0 size=N/A time=00:11:30.04 bitrate=N/A speed=4.66x    frame=17312 fps=116 q=-0.0 size=N/A time=00:11:32.48 bitrate=N/A speed=4.66x    frame=17370 fps=116 q=-0.0 size=N/A time=00:11:34.80 bitrate=N/A speed=4.66x    frame=17432 fps=116 q=-0.0 size=N/A time=00:11:37.28 bitrate=N/A speed=4.66x    frame=17495 fps=117 q=-0.0 size=N/A time=00:11:39.80 bitrate=N/A speed=4.66x    frame=17555 fps=117 q=-0.0 size=N/A time=00:11:42.20 bitrate=N/A speed=4.66x    frame=17614 fps=117 q=-0.0 size=N/A time=00:11:44.56 bitrate=N/A speed=4.66x    frame=17670 fps=116 q=-0.0 size=N/A time=00:11:46.80 bitrate=N/A speed=4.66x    frame=17727 fps=116 q=-0.0 size=N/A time=00:11:49.08 bitrate=N/A speed=4.66x    frame=17784 fps=116 q=-0.0 size=N/A time=00:11:51.36 bitrate=N/A speed=4.66x    frame=17840 fps=116 q=-0.0 size=N/A time=00:11:53.60 bitrate=N/A speed=4.66x    frame=17899 fps=116 q=-0.0 size=N/A time=00:11:55.96 bitrate=N/A speed=4.66x    frame=17959 fps=116 q=-0.0 size=N/A time=00:11:58.36 bitrate=N/A speed=4.66x    frame=18017 fps=116 q=-0.0 size=N/A time=00:12:00.68 bitrate=N/A speed=4.66x    frame=18073 fps=116 q=-0.0 size=N/A time=00:12:02.92 bitrate=N/A speed=4.65x    frame=18133 fps=116 q=-0.0 size=N/A time=00:12:05.32 bitrate=N/A speed=4.65x    frame=18192 fps=116 q=-0.0 size=N/A time=00:12:07.68 bitrate=N/A speed=4.65x    frame=18253 fps=116 q=-0.0 size=N/A time=00:12:10.12 bitrate=N/A speed=4.65x    frame=18314 fps=116 q=-0.0 size=N/A time=00:12:12.56 bitrate=N/A speed=4.65x    frame=18374 fps=116 q=-0.0 size=N/A time=00:12:14.96 bitrate=N/A speed=4.65x    frame=18436 fps=116 q=-0.0 size=N/A time=00:12:17.44 bitrate=N/A speed=4.66x    frame=18497 fps=116 q=-0.0 size=N/A time=00:12:19.88 bitrate=N/A speed=4.65x    frame=18559 fps=116 q=-0.0 size=N/A time=00:12:22.36 bitrate=N/A speed=4.66x    frame=18619 fps=116 q=-0.0 size=N/A time=00:12:24.76 bitrate=N/A speed=4.66x    frame=18680 fps=116 q=-0.0 size=N/A time=00:12:27.20 bitrate=N/A speed=4.66x    frame=18739 fps=116 q=-0.0 size=N/A time=00:12:29.56 bitrate=N/A speed=4.66x    frame=18799 fps=116 q=-0.0 size=N/A time=00:12:31.96 bitrate=N/A speed=4.66x    frame=18862 fps=116 q=-0.0 size=N/A time=00:12:34.48 bitrate=N/A speed=4.66x    frame=18925 fps=116 q=-0.0 size=N/A time=00:12:37.00 bitrate=N/A speed=4.66x    frame=18982 fps=116 q=-0.0 size=N/A time=00:12:39.28 bitrate=N/A speed=4.66x    frame=19042 fps=116 q=-0.0 size=N/A time=00:12:41.68 bitrate=N/A speed=4.66x    frame=19101 fps=116 q=-0.0 size=N/A time=00:12:44.04 bitrate=N/A speed=4.66x    frame=19162 fps=116 q=-0.0 size=N/A time=00:12:46.48 bitrate=N/A speed=4.66x    frame=19219 fps=116 q=-0.0 size=N/A time=00:12:48.76 bitrate=N/A speed=4.66x    frame=19279 fps=116 q=-0.0 size=N/A time=00:12:51.16 bitrate=N/A speed=4.66x    frame=19341 fps=116 q=-0.0 size=N/A time=00:12:53.64 bitrate=N/A speed=4.66x    frame=19405 fps=116 q=-0.0 size=N/A time=00:12:56.20 bitrate=N/A speed=4.66x    frame=19467 fps=116 q=-0.0 size=N/A time=00:12:58.68 bitrate=N/A speed=4.66x    frame=19528 fps=116 q=-0.0 size=N/A time=00:13:01.12 bitrate=N/A speed=4.66x    frame=19588 fps=116 q=-0.0 size=N/A time=00:13:03.52 bitrate=N/A speed=4.66x    frame=19648 fps=116 q=-0.0 size=N/A time=00:13:05.92 bitrate=N/A speed=4.66x    frame=19710 fps=116 q=-0.0 size=N/A time=00:13:08.40 bitrate=N/A speed=4.66x    frame=19771 fps=116 q=-0.0 size=N/A time=00:13:10.84 bitrate=N/A speed=4.66x    frame=19834 fps=116 q=-0.0 size=N/A time=00:13:13.36 bitrate=N/A speed=4.66x    frame=19896 fps=116 q=-0.0 size=N/A time=00:13:15.84 bitrate=N/A speed=4.66x    frame=19959 fps=116 q=-0.0 size=N/A time=00:13:18.36 bitrate=N/A speed=4.66x    frame=20016 fps=116 q=-0.0 size=N/A time=00:13:20.64 bitrate=N/A speed=4.66x    frame=20075 fps=116 q=-0.0 size=N/A time=00:13:23.00 bitrate=N/A speed=4.66x    frame=20138 fps=116 q=-0.0 size=N/A time=00:13:25.52 bitrate=N/A speed=4.66x    frame=20198 fps=116 q=-0.0 size=N/A time=00:13:27.92 bitrate=N/A speed=4.66x    frame=20255 fps=116 q=-0.0 size=N/A time=00:13:30.20 bitrate=N/A speed=4.66x    frame=20316 fps=116 q=-0.0 size=N/A time=00:13:32.64 bitrate=N/A speed=4.66x    frame=20374 fps=116 q=-0.0 size=N/A time=00:13:34.96 bitrate=N/A speed=4.66x    frame=20435 fps=116 q=-0.0 size=N/A time=00:13:37.40 bitrate=N/A speed=4.66x    frame=20494 fps=116 q=-0.0 size=N/A time=00:13:39.76 bitrate=N/A speed=4.66x    frame=20552 fps=116 q=-0.0 size=N/A time=00:13:42.08 bitrate=N/A speed=4.66x    frame=20612 fps=116 q=-0.0 size=N/A time=00:13:44.48 bitrate=N/A speed=4.66x    frame=20672 fps=116 q=-0.0 size=N/A time=00:13:46.88 bitrate=N/A speed=4.66x    frame=20733 fps=116 q=-0.0 size=N/A time=00:13:49.32 bitrate=N/A speed=4.66x    frame=20797 fps=116 q=-0.0 size=N/A time=00:13:51.88 bitrate=N/A speed=4.66x    frame=20859 fps=116 q=-0.0 size=N/A time=00:13:54.36 bitrate=N/A speed=4.66x    frame=20919 fps=116 q=-0.0 size=N/A time=00:13:56.76 bitrate=N/A speed=4.66x    frame=20978 fps=116 q=-0.0 size=N/A time=00:13:59.12 bitrate=N/A speed=4.66x    frame=21039 fps=117 q=-0.0 size=N/A time=00:14:01.56 bitrate=N/A speed=4.66x    frame=21101 fps=117 q=-0.0 size=N/A time=00:14:04.04 bitrate=N/A speed=4.66x    frame=21162 fps=117 q=-0.0 size=N/A time=00:14:06.48 bitrate=N/A speed=4.66x    frame=21222 fps=117 q=-0.0 size=N/A time=00:14:08.88 bitrate=N/A speed=4.66x    frame=21283 fps=117 q=-0.0 size=N/A time=00:14:11.32 bitrate=N/A speed=4.66x    frame=21345 fps=117 q=-0.0 size=N/A time=00:14:13.80 bitrate=N/A speed=4.66x    frame=21404 fps=117 q=-0.0 size=N/A time=00:14:16.16 bitrate=N/A speed=4.66x    frame=21465 fps=117 q=-0.0 size=N/A time=00:14:18.60 bitrate=N/A speed=4.66x    frame=21526 fps=117 q=-0.0 size=N/A time=00:14:21.04 bitrate=N/A speed=4.66x    frame=21586 fps=117 q=-0.0 size=N/A time=00:14:23.44 bitrate=N/A speed=4.66x    frame=21646 fps=117 q=-0.0 size=N/A time=00:14:25.84 bitrate=N/A speed=4.66x    frame=21707 fps=117 q=-0.0 size=N/A time=00:14:28.28 bitrate=N/A speed=4.66x    frame=21767 fps=117 q=-0.0 size=N/A time=00:14:30.68 bitrate=N/A speed=4.66x    frame=21828 fps=117 q=-0.0 size=N/A time=00:14:33.12 bitrate=N/A speed=4.66x    frame=21888 fps=117 q=-0.0 size=N/A time=00:14:35.52 bitrate=N/A speed=4.66x    frame=21947 fps=117 q=-0.0 size=N/A time=00:14:37.88 bitrate=N/A speed=4.66x    frame=22007 fps=117 q=-0.0 size=N/A time=00:14:40.28 bitrate=N/A speed=4.66x    frame=22067 fps=117 q=-0.0 size=N/A time=00:14:42.68 bitrate=N/A speed=4.66x    frame=22125 fps=117 q=-0.0 size=N/A time=00:14:45.00 bitrate=N/A speed=4.66x    frame=22187 fps=117 q=-0.0 size=N/A time=00:14:47.48 bitrate=N/A speed=4.66x    frame=22247 fps=117 q=-0.0 size=N/A time=00:14:49.88 bitrate=N/A speed=4.66x    frame=22309 fps=117 q=-0.0 size=N/A time=00:14:52.36 bitrate=N/A speed=4.66x    frame=22369 fps=117 q=-0.0 size=N/A time=00:14:54.76 bitrate=N/A speed=4.66x    frame=22430 fps=117 q=-0.0 size=N/A time=00:14:57.20 bitrate=N/A speed=4.66x    frame=22492 fps=117 q=-0.0 size=N/A time=00:14:59.68 bitrate=N/A speed=4.66x    frame=22554 fps=117 q=-0.0 size=N/A time=00:15:02.16 bitrate=N/A speed=4.66x    frame=22617 fps=117 q=-0.0 size=N/A time=00:15:04.68 bitrate=N/A speed=4.66x    frame=22677 fps=117 q=-0.0 size=N/A time=00:15:07.08 bitrate=N/A speed=4.66x    frame=22736 fps=117 q=-0.0 size=N/A time=00:15:09.44 bitrate=N/A speed=4.66x    frame=22796 fps=117 q=-0.0 size=N/A time=00:15:11.84 bitrate=N/A speed=4.66x    frame=22854 fps=117 q=-0.0 size=N/A time=00:15:14.16 bitrate=N/A speed=4.66x    frame=22915 fps=117 q=-0.0 size=N/A time=00:15:16.60 bitrate=N/A speed=4.66x    frame=22974 fps=117 q=-0.0 size=N/A time=00:15:18.96 bitrate=N/A speed=4.66x    frame=23036 fps=117 q=-0.0 size=N/A time=00:15:21.44 bitrate=N/A speed=4.66x    frame=23098 fps=117 q=-0.0 size=N/A time=00:15:23.92 bitrate=N/A speed=4.66x    frame=23158 fps=117 q=-0.0 size=N/A time=00:15:26.32 bitrate=N/A speed=4.66x    frame=23215 fps=117 q=-0.0 size=N/A time=00:15:28.60 bitrate=N/A speed=4.66x    frame=23274 fps=117 q=-0.0 size=N/A time=00:15:30.96 bitrate=N/A speed=4.66x    frame=23334 fps=117 q=-0.0 size=N/A time=00:15:33.36 bitrate=N/A speed=4.66x    frame=23398 fps=117 q=-0.0 size=N/A time=00:15:35.92 bitrate=N/A speed=4.66x    frame=23458 fps=117 q=-0.0 size=N/A time=00:15:38.32 bitrate=N/A speed=4.66x    frame=23518 fps=117 q=-0.0 size=N/A time=00:15:40.72 bitrate=N/A speed=4.66x    frame=23575 fps=117 q=-0.0 size=N/A time=00:15:43.00 bitrate=N/A speed=4.66x    frame=23634 fps=117 q=-0.0 size=N/A time=00:15:45.36 bitrate=N/A speed=4.66x    frame=23694 fps=117 q=-0.0 size=N/A time=00:15:47.76 bitrate=N/A speed=4.66x    frame=23754 fps=117 q=-0.0 size=N/A time=00:15:50.16 bitrate=N/A speed=4.66x    frame=23817 fps=117 q=-0.0 size=N/A time=00:15:52.68 bitrate=N/A speed=4.66x    frame=23879 fps=117 q=-0.0 size=N/A time=00:15:55.16 bitrate=N/A speed=4.66x    frame=23939 fps=117 q=-0.0 size=N/A time=00:15:57.56 bitrate=N/A speed=4.66x    frame=23999 fps=117 q=-0.0 size=N/A time=00:15:59.96 bitrate=N/A speed=4.66x    frame=24060 fps=117 q=-0.0 size=N/A time=00:16:02.40 bitrate=N/A speed=4.66x    frame=24123 fps=117 q=-0.0 size=N/A time=00:16:04.92 bitrate=N/A speed=4.66x    frame=24184 fps=117 q=-0.0 size=N/A time=00:16:07.36 bitrate=N/A speed=4.66x    frame=24244 fps=117 q=-0.0 size=N/A time=00:16:09.76 bitrate=N/A speed=4.66x    frame=24303 fps=117 q=-0.0 size=N/A time=00:16:12.12 bitrate=N/A speed=4.66x    frame=24366 fps=117 q=-0.0 size=N/A time=00:16:14.64 bitrate=N/A speed=4.66x    frame=24428 fps=117 q=-0.0 size=N/A time=00:16:17.12 bitrate=N/A speed=4.66x    frame=24485 fps=117 q=-0.0 size=N/A time=00:16:19.40 bitrate=N/A speed=4.66x    frame=24547 fps=117 q=-0.0 size=N/A time=00:16:21.88 bitrate=N/A speed=4.66x    frame=24605 fps=117 q=-0.0 size=N/A time=00:16:24.20 bitrate=N/A speed=4.66x    frame=24666 fps=117 q=-0.0 size=N/A time=00:16:26.64 bitrate=N/A speed=4.66x    frame=24725 fps=117 q=-0.0 size=N/A time=00:16:29.00 bitrate=N/A speed=4.66x    frame=24787 fps=117 q=-0.0 size=N/A time=00:16:31.48 bitrate=N/A speed=4.66x    frame=24847 fps=117 q=-0.0 size=N/A time=00:16:33.88 bitrate=N/A speed=4.66x    frame=24908 fps=117 q=-0.0 size=N/A time=00:16:36.32 bitrate=N/A speed=4.66x    frame=24970 fps=117 q=-0.0 size=N/A time=00:16:38.80 bitrate=N/A speed=4.66x    frame=25030 fps=117 q=-0.0 size=N/A time=00:16:41.20 bitrate=N/A speed=4.66x    frame=25089 fps=117 q=-0.0 size=N/A time=00:16:43.56 bitrate=N/A speed=4.66x    frame=25151 fps=117 q=-0.0 size=N/A time=00:16:46.04 bitrate=N/A speed=4.66x    frame=25211 fps=117 q=-0.0 size=N/A time=00:16:48.44 bitrate=N/A speed=4.66x    frame=25270 fps=117 q=-0.0 size=N/A time=00:16:50.80 bitrate=N/A speed=4.66x    frame=25334 fps=117 q=-0.0 size=N/A time=00:16:53.36 bitrate=N/A speed=4.67x    frame=25393 fps=117 q=-0.0 size=N/A time=00:16:55.72 bitrate=N/A speed=4.67x    frame=25451 fps=117 q=-0.0 size=N/A time=00:16:58.04 bitrate=N/A speed=4.66x    frame=25511 fps=117 q=-0.0 size=N/A time=00:17:00.44 bitrate=N/A speed=4.66x    frame=25571 fps=117 q=-0.0 size=N/A time=00:17:02.84 bitrate=N/A speed=4.66x    frame=25629 fps=117 q=-0.0 size=N/A time=00:17:05.16 bitrate=N/A speed=4.66x    frame=25690 fps=117 q=-0.0 size=N/A time=00:17:07.60 bitrate=N/A speed=4.66x    frame=25748 fps=117 q=-0.0 size=N/A time=00:17:09.92 bitrate=N/A speed=4.66x    frame=25805 fps=117 q=-0.0 size=N/A time=00:17:12.20 bitrate=N/A speed=4.66x    frame=25867 fps=117 q=-0.0 size=N/A time=00:17:14.68 bitrate=N/A speed=4.66x    frame=25926 fps=117 q=-0.0 size=N/A time=00:17:17.04 bitrate=N/A speed=4.66x    frame=25987 fps=117 q=-0.0 size=N/A time=00:17:19.48 bitrate=N/A speed=4.66x    frame=26047 fps=117 q=-0.0 size=N/A time=00:17:21.88 bitrate=N/A speed=4.66x    frame=26108 fps=117 q=-0.0 size=N/A time=00:17:24.32 bitrate=N/A speed=4.66x    frame=26170 fps=117 q=-0.0 size=N/A time=00:17:26.80 bitrate=N/A speed=4.66x    frame=26228 fps=117 q=-0.0 size=N/A time=00:17:29.12 bitrate=N/A speed=4.66x    frame=26287 fps=117 q=-0.0 size=N/A time=00:17:31.48 bitrate=N/A speed=4.66x    frame=26347 fps=117 q=-0.0 size=N/A time=00:17:33.88 bitrate=N/A speed=4.66x    frame=26408 fps=117 q=-0.0 size=N/A time=00:17:36.32 bitrate=N/A speed=4.66x    frame=26471 fps=117 q=-0.0 size=N/A time=00:17:38.84 bitrate=N/A speed=4.66x    frame=26528 fps=117 q=-0.0 size=N/A time=00:17:41.12 bitrate=N/A speed=4.66x    frame=26589 fps=117 q=-0.0 size=N/A time=00:17:43.56 bitrate=N/A speed=4.66x    frame=26651 fps=117 q=-0.0 size=N/A time=00:17:46.04 bitrate=N/A speed=4.66x    frame=26709 fps=117 q=-0.0 size=N/A time=00:17:48.36 bitrate=N/A speed=4.66x    frame=26772 fps=117 q=-0.0 size=N/A time=00:17:50.88 bitrate=N/A speed=4.66x    frame=26832 fps=117 q=-0.0 size=N/A time=00:17:53.28 bitrate=N/A speed=4.66x    frame=26897 fps=117 q=-0.0 size=N/A time=00:17:55.88 bitrate=N/A speed=4.67x    frame=26958 fps=117 q=-0.0 size=N/A time=00:17:58.32 bitrate=N/A speed=4.67x    frame=27020 fps=117 q=-0.0 size=N/A time=00:18:00.80 bitrate=N/A speed=4.67x    frame=27080 fps=117 q=-0.0 size=N/A time=00:18:03.20 bitrate=N/A speed=4.67x    frame=27141 fps=117 q=-0.0 size=N/A time=00:18:05.64 bitrate=N/A speed=4.67x    frame=27203 fps=117 q=-0.0 size=N/A time=00:18:08.12 bitrate=N/A speed=4.67x    frame=27263 fps=117 q=-0.0 size=N/A time=00:18:10.52 bitrate=N/A speed=4.67x    frame=27326 fps=117 q=-0.0 size=N/A time=00:18:13.04 bitrate=N/A speed=4.67x    frame=27385 fps=117 q=-0.0 size=N/A time=00:18:15.40 bitrate=N/A speed=4.67x    frame=27446 fps=117 q=-0.0 size=N/A time=00:18:17.84 bitrate=N/A speed=4.67x    frame=27509 fps=117 q=-0.0 size=N/A time=00:18:20.36 bitrate=N/A speed=4.67x    frame=27569 fps=117 q=-0.0 size=N/A time=00:18:22.76 bitrate=N/A speed=4.67x    frame=27627 fps=117 q=-0.0 size=N/A time=00:18:25.08 bitrate=N/A speed=4.67x    frame=27688 fps=117 q=-0.0 size=N/A time=00:18:27.52 bitrate=N/A speed=4.67x    frame=27748 fps=117 q=-0.0 size=N/A time=00:18:29.92 bitrate=N/A speed=4.67x    frame=27810 fps=117 q=-0.0 size=N/A time=00:18:32.40 bitrate=N/A speed=4.67x    frame=27871 fps=117 q=-0.0 size=N/A time=00:18:34.84 bitrate=N/A speed=4.67x    frame=27932 fps=117 q=-0.0 size=N/A time=00:18:37.28 bitrate=N/A speed=4.67x    frame=27995 fps=117 q=-0.0 size=N/A time=00:18:39.80 bitrate=N/A speed=4.67x    frame=28057 fps=117 q=-0.0 size=N/A time=00:18:42.28 bitrate=N/A speed=4.67x    frame=28118 fps=117 q=-0.0 size=N/A time=00:18:44.72 bitrate=N/A speed=4.67x    frame=28181 fps=117 q=-0.0 size=N/A time=00:18:47.24 bitrate=N/A speed=4.67x    frame=28244 fps=117 q=-0.0 size=N/A time=00:18:49.76 bitrate=N/A speed=4.67x    frame=28303 fps=117 q=-0.0 size=N/A time=00:18:52.12 bitrate=N/A speed=4.67x    frame=28361 fps=117 q=-0.0 size=N/A time=00:18:54.44 bitrate=N/A speed=4.67x    frame=28422 fps=117 q=-0.0 size=N/A time=00:18:56.88 bitrate=N/A speed=4.67x    frame=28482 fps=117 q=-0.0 size=N/A time=00:18:59.28 bitrate=N/A speed=4.67x    frame=28540 fps=117 q=-0.0 size=N/A time=00:19:01.60 bitrate=N/A speed=4.67x    frame=28601 fps=117 q=-0.0 size=N/A time=00:19:04.04 bitrate=N/A speed=4.67x    frame=28659 fps=117 q=-0.0 size=N/A time=00:19:06.36 bitrate=N/A speed=4.67x    frame=28717 fps=117 q=-0.0 size=N/A time=00:19:08.68 bitrate=N/A speed=4.67x    frame=28778 fps=117 q=-0.0 size=N/A time=00:19:11.12 bitrate=N/A speed=4.67x    frame=28839 fps=117 q=-0.0 size=N/A time=00:19:13.56 bitrate=N/A speed=4.67x    frame=28899 fps=117 q=-0.0 size=N/A time=00:19:15.96 bitrate=N/A speed=4.67x    frame=28963 fps=117 q=-0.0 size=N/A time=00:19:18.52 bitrate=N/A speed=4.67x    frame=29023 fps=117 q=-0.0 size=N/A time=00:19:20.92 bitrate=N/A speed=4.67x    frame=29086 fps=117 q=-0.0 size=N/A time=00:19:23.44 bitrate=N/A speed=4.67x    frame=29144 fps=117 q=-0.0 size=N/A time=00:19:25.76 bitrate=N/A speed=4.67x    frame=29203 fps=117 q=-0.0 size=N/A time=00:19:28.12 bitrate=N/A speed=4.67x    frame=29264 fps=117 q=-0.0 size=N/A time=00:19:30.56 bitrate=N/A speed=4.67x    frame=29324 fps=117 q=-0.0 size=N/A time=00:19:32.96 bitrate=N/A speed=4.67x    frame=29388 fps=117 q=-0.0 size=N/A time=00:19:35.52 bitrate=N/A speed=4.67x    frame=29448 fps=117 q=-0.0 size=N/A time=00:19:37.92 bitrate=N/A speed=4.67x    frame=29507 fps=117 q=-0.0 size=N/A time=00:19:40.28 bitrate=N/A speed=4.67x    frame=29567 fps=117 q=-0.0 size=N/A time=00:19:42.68 bitrate=N/A speed=4.67x    frame=29627 fps=117 q=-0.0 size=N/A time=00:19:45.08 bitrate=N/A speed=4.67x    frame=29691 fps=117 q=-0.0 size=N/A time=00:19:47.64 bitrate=N/A speed=4.67x    frame=29750 fps=117 q=-0.0 size=N/A time=00:19:50.00 bitrate=N/A speed=4.67x    frame=29812 fps=117 q=-0.0 size=N/A time=00:19:52.48 bitrate=N/A speed=4.67x    frame=29872 fps=117 q=-0.0 size=N/A time=00:19:54.88 bitrate=N/A speed=4.67x    frame=29933 fps=117 q=-0.0 size=N/A time=00:19:57.32 bitrate=N/A speed=4.67x    frame=29996 fps=117 q=-0.0 size=N/A time=00:19:59.84 bitrate=N/A speed=4.67x    frame=30055 fps=117 q=-0.0 size=N/A time=00:20:02.20 bitrate=N/A speed=4.67x    frame=30118 fps=117 q=-0.0 size=N/A time=00:20:04.72 bitrate=N/A speed=4.67x    frame=30177 fps=117 q=-0.0 size=N/A time=00:20:07.08 bitrate=N/A speed=4.67x    frame=30239 fps=117 q=-0.0 size=N/A time=00:20:09.56 bitrate=N/A speed=4.67x    frame=30299 fps=117 q=-0.0 size=N/A time=00:20:11.96 bitrate=N/A speed=4.67x    frame=30359 fps=117 q=-0.0 size=N/A time=00:20:14.36 bitrate=N/A speed=4.67x    frame=30420 fps=117 q=-0.0 size=N/A time=00:20:16.80 bitrate=N/A speed=4.67x    frame=30480 fps=117 q=-0.0 size=N/A time=00:20:19.20 bitrate=N/A speed=4.67x    frame=30539 fps=117 q=-0.0 size=N/A time=00:20:21.56 bitrate=N/A speed=4.67x    frame=30600 fps=117 q=-0.0 size=N/A time=00:20:24.00 bitrate=N/A speed=4.67x    frame=30660 fps=117 q=-0.0 size=N/A time=00:20:26.40 bitrate=N/A speed=4.67x    frame=30721 fps=117 q=-0.0 size=N/A time=00:20:28.84 bitrate=N/A speed=4.67x    frame=30784 fps=117 q=-0.0 size=N/A time=00:20:31.36 bitrate=N/A speed=4.67x    frame=30845 fps=117 q=-0.0 size=N/A time=00:20:33.80 bitrate=N/A speed=4.67x    frame=30906 fps=117 q=-0.0 size=N/A time=00:20:36.24 bitrate=N/A speed=4.67x    frame=30968 fps=117 q=-0.0 size=N/A time=00:20:38.72 bitrate=N/A speed=4.67x    frame=31028 fps=117 q=-0.0 size=N/A time=00:20:41.12 bitrate=N/A speed=4.67x    frame=31089 fps=117 q=-0.0 size=N/A time=00:20:43.56 bitrate=N/A speed=4.67x    frame=31151 fps=117 q=-0.0 size=N/A time=00:20:46.04 bitrate=N/A speed=4.67x    frame=31212 fps=117 q=-0.0 size=N/A time=00:20:48.48 bitrate=N/A speed=4.67x    frame=31272 fps=117 q=-0.0 size=N/A time=00:20:50.88 bitrate=N/A speed=4.67x    frame=31333 fps=117 q=-0.0 size=N/A time=00:20:53.32 bitrate=N/A speed=4.67x    frame=31394 fps=117 q=-0.0 size=N/A time=00:20:55.76 bitrate=N/A speed=4.67x    frame=31455 fps=117 q=-0.0 size=N/A time=00:20:58.20 bitrate=N/A speed=4.67x    frame=31515 fps=117 q=-0.0 size=N/A time=00:21:00.60 bitrate=N/A speed=4.67x    frame=31576 fps=117 q=-0.0 size=N/A time=00:21:03.04 bitrate=N/A speed=4.67x    frame=31635 fps=117 q=-0.0 size=N/A time=00:21:05.40 bitrate=N/A speed=4.67x    frame=31696 fps=117 q=-0.0 size=N/A time=00:21:07.84 bitrate=N/A speed=4.67x    frame=31758 fps=117 q=-0.0 size=N/A time=00:21:10.32 bitrate=N/A speed=4.67x    frame=31821 fps=117 q=-0.0 size=N/A time=00:21:12.84 bitrate=N/A speed=4.67x    frame=31881 fps=117 q=-0.0 size=N/A time=00:21:15.24 bitrate=N/A speed=4.67x    frame=31941 fps=117 q=-0.0 size=N/A time=00:21:17.64 bitrate=N/A speed=4.67x    frame=32004 fps=117 q=-0.0 size=N/A time=00:21:20.16 bitrate=N/A speed=4.67x    frame=32064 fps=117 q=-0.0 size=N/A time=00:21:22.56 bitrate=N/A speed=4.67x    frame=32118 fps=117 q=-0.0 size=N/A time=00:21:24.72 bitrate=N/A speed=4.67x    frame=32178 fps=117 q=-0.0 size=N/A time=00:21:27.12 bitrate=N/A speed=4.67x    frame=32236 fps=117 q=-0.0 size=N/A time=00:21:29.44 bitrate=N/A speed=4.67x    frame=32296 fps=117 q=-0.0 size=N/A time=00:21:31.84 bitrate=N/A speed=4.67x    frame=32356 fps=117 q=-0.0 size=N/A time=00:21:34.24 bitrate=N/A speed=4.67x    frame=32416 fps=117 q=-0.0 size=N/A time=00:21:36.64 bitrate=N/A speed=4.67x    frame=32476 fps=117 q=-0.0 size=N/A time=00:21:39.04 bitrate=N/A speed=4.67x    frame=32534 fps=117 q=-0.0 size=N/A time=00:21:41.36 bitrate=N/A speed=4.67x    frame=32599 fps=117 q=-0.0 size=N/A time=00:21:43.96 bitrate=N/A speed=4.67x    frame=32658 fps=117 q=-0.0 size=N/A time=00:21:46.32 bitrate=N/A speed=4.67x    frame=32720 fps=117 q=-0.0 size=N/A time=00:21:48.80 bitrate=N/A speed=4.67x    frame=32785 fps=117 q=-0.0 size=N/A time=00:21:51.40 bitrate=N/A speed=4.67x    frame=32848 fps=117 q=-0.0 size=N/A time=00:21:53.92 bitrate=N/A speed=4.67x    frame=32912 fps=117 q=-0.0 size=N/A time=00:21:56.48 bitrate=N/A speed=4.67x    frame=32977 fps=117 q=-0.0 size=N/A time=00:21:59.08 bitrate=N/A speed=4.67x    frame=33042 fps=117 q=-0.0 size=N/A time=00:22:01.68 bitrate=N/A speed=4.68x    [Parsed_libvmaf_10 @ 00000201e1f8a880] VMAF score: 96.896236
[out#0/null @ 00000201e1683bc0] video:14210KiB audio:248040KiB subtitle:0KiB other streams:0KiB global headers:0KiB muxing overhead: unknown
frame=33071 fps=116 q=-0.0 Lsize=N/A time=00:22:02.84 bitrate=N/A speed=4.65x    
